<svg id="effect" height="512" viewBox="0 0 36 36" width="512" xmlns="http://www.w3.org/2000/svg"><path d="m34.904 20.355c-3.782-5.791-3.38-11.727-5.203-14.518s-7.256-7.603-20.093.782-9.572 17.5-7.566 20.569c9.388 14.372 39.561 3.423 32.862-6.833z" fill="#efefef"/><circle cx="15" cy="11" fill="#2fdf84" r="4.5"/><path d="m23.44 22.5v4h-6-4.94-6v-4c0-1.06.42-2.03 1.09-2.75.56-.59 1.29-1 2.11-1.17.13-.03.26-.05.39-.06.12-.01.23-.02.35-.02h9c.14 0 .27.01.41.02.13.01.26.03.39.06.82.17 1.55.58 2.11 1.17.67.72 1.09 1.69 1.09 2.75z" fill="#f3f3f1"/><path d="m7.56 19.73c.56-.59 1.31-1.01 2.14-1.15-.82.17-1.55.58-2.11 1.17z" fill="#2fdf84"/><path d="m23.5 18.5h1c.552 0 1 .448 1 1v3h3c.552 0 1 .448 1 1v1c0 .552-.448 1-1 1h-3v3c0 .552-.448 1-1 1h-1c-.552 0-1-.448-1-1v-3h-3c-.552 0-1-.448-1-1v-1c0-.552.448-1 1-1h3v-3c0-.552.448-1 1-1z" fill="#2fdf84"/><path d="m16 15.39c-.32.07-.66.11-1 .11-2.49 0-4.5-2.01-4.5-4.5s2.01-4.5 4.5-4.5c.34 0 .68.04 1 .11-2.01.45-3.5 2.24-3.5 4.39s1.49 3.94 3.5 4.39z" fill="#00b871"/><path d="m21.5 25.5h-2c-.55 0-1-.45-1-1v-1c0-.55.45-1 1-1h2c-.55 0-1 .45-1 1v1c0 .55.45 1 1 1z" fill="#00b871"/><path d="m12.44 18.5c-.12 0-.23.01-.35.02-.13.01-.26.03-.39.06-.82.17-1.55.58-2.11 1.17-.67.72-1.09 1.69-1.09 2.75v4h-2v-4c0-1.06.42-2.03 1.09-2.75.56-.59 1.29-1 2.11-1.17.13-.03.26-.05.39-.06.12-.01.23-.02.35-.02z" fill="#d5dbe1"/><path d="m15 16.25c-2.895 0-5.25-2.355-5.25-5.25s2.355-5.25 5.25-5.25 5.25 2.355 5.25 5.25-2.355 5.25-5.25 5.25zm0-9c-2.068 0-3.75 1.683-3.75 3.75s1.682 3.75 3.75 3.75 3.75-1.683 3.75-3.75-1.682-3.75-3.75-3.75z"/><path d="m15.5 27.25h-9c-.414 0-.75-.336-.75-.75v-4c0-2.619 2.131-4.75 4.75-4.75h9v1.5h-9c-1.792 0-3.25 1.458-3.25 3.25v3.25h8.25z"/><path d="m24.5 30.25h-1c-.965 0-1.75-.785-1.75-1.75v-2.25h-2.25c-.965 0-1.75-.785-1.75-1.75v-1c0-.965.785-1.75 1.75-1.75h2.25v-2.25c0-.965.785-1.75 1.75-1.75h1c.965 0 1.75.785 1.75 1.75v2.25h2.25c.965 0 1.75.785 1.75 1.75v1c0 .965-.785 1.75-1.75 1.75h-2.25v2.25c0 .965-.785 1.75-1.75 1.75zm-5-7c-.138 0-.25.112-.25.25v1c0 .138.112.25.25.25h3c.414 0 .75.336.75.75v3c0 .138.112.25.25.25h1c.138 0 .25-.112.25-.25v-3c0-.414.336-.75.75-.75h3c.138 0 .25-.112.25-.25v-1c0-.138-.112-.25-.25-.25h-3c-.414 0-.75-.336-.75-.75v-3c0-.138-.112-.25-.25-.25h-1c-.138 0-.25.112-.25.25v3c0 .414-.336.75-.75.75z"/><path d="m6.5 15c-.827 0-1.5-.673-1.5-1.5s.673-1.5 1.5-1.5 1.5.673 1.5 1.5-.673 1.5-1.5 1.5zm0-2c-.276 0-.5.225-.5.5s.224.5.5.5.5-.225.5-.5-.224-.5-.5-.5z" fill="#a4afc1"/></svg>