<svg id="effect" height="512" viewBox="0 0 36 36" width="512" xmlns="http://www.w3.org/2000/svg"><path d="m8.377 31.833c6.917 0 11.667 3.583 15 3.583s10.333-1.916 10.333-17.249-9.417-17.584-13.083-17.584c-17.167 0-24.5 31.25-12.25 31.25z" fill="#efefef"/><circle cx="25.5" cy="19.5" fill="#2fdf84" r="2"/><path d="m26.5 21.23c-.29.17-.64.27-1 .27-1.1 0-2-.9-2-2s.9-2 2-2c.36 0 .71.1 1 .27-.6.35-1 .99-1 1.73s.4 1.38 1 1.73z" fill="#00b871"/><path d="m13.5 19.25c-3.17 0-5.75-2.58-5.75-5.75v-5c0-.965.785-1.75 1.75-1.75h1.75v1.5h-1.75c-.138 0-.25.112-.25.25v5c0 2.343 1.907 4.25 4.25 4.25s4.25-1.907 4.25-4.25v-5c0-.138-.112-.25-.25-.25h-1.75v-1.5h1.75c.965 0 1.75.785 1.75 1.75v5c0 3.17-2.58 5.75-5.75 5.75z"/><path d="m9.75 5.75h1.5v3.5h-1.5z"/><path d="m15.75 5.75h1.5v3.5h-1.5z"/><path d="m19.5 30.25c-3.722 0-6.75-3.028-6.75-6.75v-5h1.5v5c0 2.895 2.355 5.25 5.25 5.25s5.25-2.355 5.25-5.25v-2h1.5v2c0 3.722-3.028 6.75-6.75 6.75z"/><path d="m25.5 22.25c-1.517 0-2.75-1.233-2.75-2.75s1.233-2.75 2.75-2.75 2.75 1.233 2.75 2.75-1.233 2.75-2.75 2.75zm0-4c-.689 0-1.25.561-1.25 1.25s.561 1.25 1.25 1.25 1.25-.561 1.25-1.25-.561-1.25-1.25-1.25z"/><g fill="#a4afc1"><path d="m27.685 8.367h1v2h-1z" transform="matrix(.707 -.707 .707 .707 1.632 22.673)"/><path d="m23.619 4.301h1v2h-1z" transform="matrix(.707 -.707 .707 .707 3.316 18.607)"/><path d="m27.361 4.801h2v1h-2z" transform="matrix(.707 -.707 .707 .707 4.558 21.607)"/></g></svg>